<svg width="1040" height="56" viewBox="0 0 1040 56" fill="none" xmlns="http://www.w3.org/2000/svg">
<path d="M224.258 17.5006H216.961C216.462 17.5006 216.037 17.9238 215.959 18.4989L213.008 40.3295C212.949 40.7602 213.235 41.1486 213.609 41.1486H217.093C217.592 41.1486 218.017 40.7254 218.095 40.149L218.891 34.2609C218.968 33.6846 219.394 33.2613 219.892 33.2613H222.202C227.009 33.2613 229.783 30.5476 230.507 25.17C230.834 22.8172 230.521 20.9686 229.577 19.6741C228.54 18.2525 226.7 17.5006 224.258 17.5006ZM225.1 25.4737C224.701 28.5285 222.7 28.5285 220.766 28.5285H219.665L220.437 22.8235C220.483 22.4786 220.739 22.2246 221.038 22.2246H221.543C222.86 22.2246 224.103 22.2246 224.746 23.101C225.129 23.6238 225.246 24.4007 225.1 25.4737Z" fill="#C5C5C5"/>
<path d="M246.071 25.3762H242.576C242.279 25.3762 242.022 25.6301 241.976 25.9749L241.821 27.1152L241.577 26.702C240.82 25.421 239.133 24.9928 237.449 24.9928C233.588 24.9928 230.29 28.4048 229.648 33.1912C229.314 35.5788 229.788 37.8618 230.949 39.454C232.014 40.9179 233.538 41.5278 235.351 41.5278C238.462 41.5278 240.187 39.1938 240.187 39.1938L240.032 40.3265C239.973 40.7598 240.259 41.1482 240.631 41.1482H243.779C244.279 41.1482 244.702 40.725 244.781 40.1486L246.669 26.1953C246.729 25.7658 246.444 25.3762 246.071 25.3762ZM241.2 33.3107C240.863 35.6398 239.278 37.2033 237.257 37.2033C236.243 37.2033 235.432 36.8236 234.911 36.1041C234.395 35.3896 234.198 34.3726 234.363 33.2397C234.677 30.9305 236.289 29.316 238.279 29.316C239.271 29.316 240.077 29.7006 240.609 30.4264C241.141 31.1597 241.353 32.1828 241.2 33.3107Z" fill="#C5C5C5"/>
<path d="M264.682 25.3767H261.17C260.835 25.3767 260.52 25.5709 260.33 25.8958L255.487 34.2187L253.434 26.2207C253.305 25.7203 252.91 25.3767 252.461 25.3767H249.011C248.591 25.3767 248.3 25.8547 248.433 26.3153L252.301 39.5578L248.665 45.5467C248.379 46.0185 248.667 46.667 249.161 46.667H252.668C253.001 46.667 253.313 46.4778 253.502 46.1592L265.181 26.4908C265.461 26.0203 265.174 25.3767 264.682 25.3767Z" fill="#C5C5C5"/>
<path d="M276.307 17.5006H269.009C268.511 17.5006 268.086 17.9238 268.008 18.4989L265.057 40.3295C264.998 40.7602 265.284 41.1486 265.656 41.1486H269.401C269.749 41.1486 270.047 40.8524 270.101 40.449L270.939 34.2609C271.016 33.6846 271.442 33.2613 271.94 33.2613H274.249C279.057 33.2613 281.83 30.5476 282.555 25.17C282.883 22.8172 282.568 20.9686 281.624 19.6741C280.588 18.2525 278.749 17.5006 276.307 17.5006ZM277.149 25.4737C276.751 28.5285 274.75 28.5285 272.815 28.5285H271.715L272.488 22.8235C272.534 22.4786 272.788 22.2246 273.088 22.2246H273.593C274.909 22.2246 276.153 22.2246 276.796 23.101C277.179 23.6238 277.295 24.4007 277.149 25.4737Z" fill="#C5C5C5"/>
<path d="M298.119 25.3762H294.627C294.327 25.3762 294.072 25.6301 294.027 25.9749L293.872 27.1152L293.627 26.702C292.87 25.421 291.185 24.9928 289.501 24.9928C285.639 24.9928 282.342 28.4048 281.7 33.1912C281.367 35.5788 281.84 37.8618 283.001 39.454C284.068 40.9179 285.589 41.5278 287.402 41.5278C290.513 41.5278 292.239 39.1938 292.239 39.1938L292.083 40.3265C292.024 40.7598 292.31 41.1482 292.685 41.1482H295.831C296.33 41.1482 296.754 40.725 296.832 40.1486L298.722 26.1953C298.779 25.7658 298.493 25.3762 298.119 25.3762ZM293.248 33.3107C292.913 35.6398 291.326 37.2033 289.306 37.2033C288.293 37.2033 287.48 36.8236 286.959 36.1041C286.443 35.3896 286.249 34.3726 286.411 33.2397C286.728 30.9305 288.337 29.316 290.327 29.316C291.319 29.316 292.126 29.7006 292.657 30.4264C293.192 31.1597 293.403 32.1828 293.248 33.3107Z" fill="#C5C5C5"/>
<path d="M302.239 18.1L299.244 40.3302C299.185 40.7609 299.471 41.1493 299.843 41.1493H302.854C303.355 41.1493 303.779 40.726 303.856 40.1497L306.81 18.3204C306.868 17.8897 306.582 17.5 306.21 17.5H302.838C302.541 17.5013 302.284 17.7552 302.239 18.1Z" fill="#C5C5C5"/>
<path d="M555.836 15.2961C553.515 16.4238 550.964 19.606 550.158 23.6086C549.136 28.6756 553.385 30.8154 553.732 30.1173C554.14 29.2893 552.968 29.0114 552.729 26.3841C552.421 22.9865 553.778 19.1906 555.49 17.525C555.809 17.2205 555.793 17.6502 555.793 18.4422C555.793 19.8707 555.725 32.6507 555.725 35.3189C555.725 38.9307 555.597 40.068 555.362 41.191C555.131 42.3331 554.757 43.1032 555.039 43.4029C555.358 43.7339 556.715 42.9457 557.501 41.671C558.442 40.1438 558.774 38.3086 558.835 36.3167C558.905 33.9179 558.901 30.104 558.905 27.9329C558.905 25.9363 558.932 20.0992 558.878 16.585C558.862 15.7257 556.804 14.8255 555.836 15.2961ZM662.825 34.2575C662.493 34.2575 662.336 34.6606 662.208 35.3369C661.769 37.6958 661.307 38.2279 660.709 38.2279C660.042 38.2279 659.444 37.0605 659.287 34.7233C659.167 32.8879 659.186 29.5037 659.34 26.1374C659.372 25.4479 659.209 24.764 657.613 24.0878C656.923 23.8013 655.925 23.3716 655.428 24.7679C654.021 28.7032 653.473 31.836 653.342 33.1032C653.339 33.1696 653.269 33.1792 653.257 33.0273C653.177 32.0105 652.991 30.162 652.968 26.2759C652.96 25.5247 652.826 24.875 652.101 24.3467C651.635 24.0071 650.216 23.3982 649.703 24.1191C649.263 24.7099 648.751 26.2949 648.215 28.1748C647.783 29.7057 647.483 30.7444 647.483 30.7444C647.483 30.7444 647.486 26.6165 647.494 25.0495C647.494 24.4586 647.147 24.2622 647.043 24.2262C646.569 24.065 645.632 23.8013 645.239 23.8013C644.75 23.8013 644.634 24.1191 644.634 24.58C644.634 24.6379 644.553 30.0092 644.553 33.7653V34.2936C644.287 36.0218 643.409 38.3674 642.456 38.3674C641.504 38.3674 641.053 37.3867 641.053 32.9106C641.053 30.3004 641.122 29.1641 641.153 27.2747C641.172 26.1868 641.21 25.3502 641.207 25.1577C641.199 24.58 640.331 24.2841 639.93 24.177C639.526 24.065 639.175 24.0289 638.898 24.0422C638.513 24.0697 638.239 24.3647 638.239 24.7773V25.4034C637.741 24.4908 636.935 23.8545 636.396 23.6713C634.955 23.1743 633.447 23.6173 632.31 25.4611C631.408 26.9304 630.864 28.5902 630.652 30.9768C630.494 32.7229 630.544 34.4909 630.826 35.9857C630.486 37.6731 629.862 38.3674 629.179 38.3674C628.185 38.3674 627.468 36.4866 627.549 33.2322C627.607 31.0934 627.973 29.5938 628.378 27.418C628.551 26.4913 628.409 26.0085 628.058 25.538C627.738 25.1168 627.052 24.8977 626.069 25.1614C625.371 25.354 624.365 25.5598 623.451 25.7172C623.451 25.7172 623.505 25.4611 623.552 25.0097C623.787 22.6413 621.57 22.8338 620.864 23.5907C620.441 24.0422 620.151 24.5753 620.044 25.5333C619.87 27.0556 620.938 27.7717 620.938 27.7717C620.587 29.6337 619.731 32.0684 618.841 33.8279C618.367 34.7726 618.004 35.4669 617.534 36.2096C617.53 35.9364 617.53 35.6585 617.53 35.3863C617.522 31.469 617.564 28.3854 617.584 27.2747C617.603 26.1868 617.642 25.372 617.642 25.1795C617.634 24.7583 617.422 24.5932 616.975 24.3961C616.582 24.2177 616.115 24.0878 615.633 24.0422C615.028 23.9891 614.658 24.3647 614.67 24.8077V25.4034C614.169 24.4908 613.363 23.8545 612.831 23.6713C611.385 23.1743 609.878 23.6173 608.741 25.4611C607.843 26.9304 607.249 28.9849 607.079 30.954C606.925 32.7987 606.952 34.3561 607.168 35.6727C606.937 36.9882 606.278 38.3674 605.53 38.3674C604.578 38.3674 604.034 37.3867 604.034 32.9106C604.034 30.3004 604.103 29.1641 604.138 27.2747C604.157 26.1868 604.192 25.3502 604.188 25.1577C604.184 24.58 603.317 24.2841 602.912 24.177C602.492 24.0611 602.126 24.0252 601.848 24.0422C601.478 24.0783 601.22 24.4586 601.22 24.7498V25.4034C600.719 24.4908 599.913 23.8545 599.377 23.6713C597.935 23.1743 596.44 23.6268 595.295 25.4611C594.547 26.6573 593.942 27.9861 593.63 30.9321C593.545 31.7829 593.503 32.5787 593.507 33.3223C593.209 35.4346 591.895 37.8704 590.823 37.8704C590.191 37.8704 589.59 36.4552 589.59 33.4342C589.59 29.4146 589.806 23.6846 589.844 23.1298C589.844 23.1298 591.201 23.1022 591.467 23.0985C592.142 23.0937 592.758 23.1118 593.657 23.0577C594.112 23.0312 594.547 21.1464 594.077 20.9094C593.868 20.8059 592.373 20.712 591.779 20.6988C591.278 20.6855 589.894 20.5651 589.894 20.5651C589.894 20.5651 590.018 16.7644 590.045 16.366C590.068 16.0255 589.698 15.8557 589.482 15.7523C588.961 15.4933 588.495 15.372 587.947 15.242C587.18 15.059 586.837 15.2383 586.772 15.9847C586.671 17.1182 586.618 20.4399 586.618 20.4399C586.055 20.4399 584.147 20.309 583.587 20.309C583.068 20.309 582.504 22.9059 583.225 22.9371C584.054 22.9733 585.492 23.0094 586.448 23.0396C586.448 23.0396 586.405 28.8644 586.405 30.659V31.2138C585.878 34.396 584.031 36.1157 584.031 36.1157C584.428 34.0072 583.618 32.4269 582.154 31.0934C581.614 30.5963 580.55 29.6602 579.359 28.6444C579.359 28.6444 580.049 27.8523 580.661 26.2674C581.093 25.1434 581.113 23.8506 580.049 23.568C578.291 23.0985 576.845 24.598 576.41 26.2001C576.078 27.4359 576.252 28.3578 576.911 29.3111L577.061 29.5265C576.668 30.4123 576.121 31.6075 575.662 32.5341C574.378 35.1084 573.41 37.141 572.682 37.141C572.096 37.141 572.104 35.0771 572.104 33.143C572.104 31.4775 572.211 28.9668 572.296 26.3708C572.323 25.5152 571.953 25.0229 571.333 24.58C570.955 24.3116 570.153 23.7833 569.687 23.7833C568.993 23.7833 566.98 23.8904 565.081 30.2692C564.841 31.0753 564.371 32.5389 564.371 32.5389L564.413 24.8665C564.413 24.6871 564.332 24.5174 564.144 24.3961C563.823 24.1949 562.964 23.7833 562.209 23.7833C561.842 23.7833 561.661 23.9806 561.661 24.3695L561.599 36.3661C561.599 37.2796 561.618 38.3446 561.696 38.8103C561.772 39.2761 561.9 39.6564 562.054 39.884C562.209 40.1041 562.389 40.2739 562.682 40.3498C562.956 40.4171 564.463 40.6362 564.541 39.9694C564.637 39.1679 564.64 38.3048 565.431 35.0686C566.664 30.0367 568.269 27.5839 569.024 26.7104C569.159 26.5586 569.309 26.5491 569.301 26.8004C569.267 27.9054 569.155 30.659 569.078 32.9999C568.874 39.2714 569.852 40.4304 571.26 40.4304C572.331 40.4304 573.843 39.1907 575.466 36.0578C576.479 34.1011 577.459 32.1899 578.168 30.8069C578.654 31.3342 579.208 31.9033 579.76 32.5123C581.044 33.9218 581.463 35.2648 581.182 36.5369C580.97 37.5118 580.165 38.5145 578.734 37.5394C578.318 37.2567 578.141 37.0376 577.721 36.7151C577.497 36.5406 577.15 36.4914 576.946 36.6706C576.406 37.141 576.101 37.7357 575.924 38.4746C575.758 39.1955 576.379 39.571 577.022 39.9021C577.574 40.1933 578.761 40.4483 579.52 40.4797C582.477 40.5964 584.844 38.8236 586.49 34.2575C586.787 38.2015 588.04 40.4352 590.218 40.4352C591.679 40.4352 593.14 38.246 593.78 36.0929C593.961 36.9703 594.234 37.7309 594.586 38.3807C596.267 41.4691 599.527 40.807 601.162 38.1834C601.671 37.3687 601.748 37.0775 601.748 37.0775C601.987 39.554 603.706 40.4256 604.69 40.4256C605.796 40.4256 606.929 39.8176 607.727 37.7309C607.823 37.9596 607.923 38.1749 608.039 38.3807C609.716 41.4691 612.977 40.807 614.616 38.1834C614.689 38.0535 614.758 37.9463 614.816 37.8429L614.866 39.4724C614.866 39.4724 613.929 40.4664 613.355 41.0792C610.83 43.7701 608.91 45.8113 608.768 48.1835C608.591 51.2139 610.703 52.3378 612.306 52.4848C614.003 52.6423 615.46 51.5544 616.354 50.0235C617.14 48.6805 617.657 45.7932 617.619 42.9373C617.604 41.7915 617.58 40.3412 617.557 38.7791C618.447 37.5887 619.45 36.0749 620.368 34.3032C621.373 32.3777 622.445 29.7854 622.992 27.767C622.992 27.767 623.929 27.7765 624.924 27.7044C625.244 27.6816 625.336 27.7585 625.274 28.0268C625.205 28.3532 624.018 33.6761 625.101 37.2216C625.845 39.647 627.514 40.4304 628.509 40.4304C629.669 40.4304 630.779 39.4098 631.372 37.897C631.446 38.063 631.52 38.2279 631.604 38.3807C633.281 41.4691 636.531 40.8022 638.181 38.1834C638.555 37.5887 638.763 37.0775 638.763 37.0775C639.118 39.6431 640.837 40.4352 641.82 40.4352C642.849 40.4352 643.82 39.9476 644.611 37.7803C644.642 38.7345 644.692 39.5133 644.776 39.7588C644.826 39.9116 645.119 40.0994 645.328 40.1933C646.268 40.5964 647.224 40.4039 647.575 40.3185C647.822 40.2606 648.014 40.0367 648.038 39.4458C648.107 37.897 648.064 35.2962 648.469 33.3584C649.151 30.1174 649.784 28.8597 650.084 28.2374C650.251 27.8874 650.443 27.8296 650.447 28.1967C650.458 28.9441 650.493 31.1379 650.759 34.0926C650.948 36.2588 651.206 37.5431 651.407 37.9511C651.969 39.1101 652.671 39.1642 653.238 39.1642C653.601 39.1642 654.356 39.0475 654.29 38.3086C654.256 37.9511 654.314 35.7259 654.98 32.5304C655.42 30.4399 656.148 28.5552 656.41 27.8656C656.511 27.6105 656.553 27.8077 656.553 27.8476C656.495 29.2846 656.372 33.9891 656.873 36.5586C657.56 40.0463 659.536 40.4352 660.227 40.4352C661.695 40.4352 662.902 39.1367 663.307 35.7173C663.407 34.893 663.26 34.2575 662.825 34.2575ZM601.189 32.1452C601.108 33.953 600.803 35.4669 600.318 36.5633C599.431 38.5552 597.685 39.182 596.918 36.3129C596.359 34.2404 596.548 31.411 596.783 29.8839C597.122 27.619 597.982 26.0169 599.323 26.1639C600.695 26.3214 601.366 28.3759 601.189 32.1452ZM614.638 32.1718C614.562 33.8771 614.18 35.5958 613.764 36.5633C612.904 38.5685 611.107 39.1953 610.363 36.3129C609.855 34.3382 609.975 31.7914 610.229 30.1884C610.557 28.1027 611.347 26.1639 612.77 26.1639C614.153 26.1639 614.835 27.9281 614.638 32.1718ZM614.99 43.8278C614.97 46.9484 614.55 49.6791 613.648 50.4758C612.36 51.6037 610.63 50.7529 610.988 48.4793C611.304 46.4647 612.804 44.4102 614.994 41.8986C614.994 41.8986 615.001 42.4715 614.99 43.8278H614.99ZM638.212 32.1897C638.134 34.0659 637.776 35.5294 637.333 36.5633C636.473 38.5685 634.692 39.1906 633.933 36.3129C633.52 34.7412 633.5 32.1176 633.798 29.9296C634.098 27.6996 634.943 26.0169 636.338 26.1639C637.718 26.3166 638.362 28.3759 638.212 32.1897Z" fill="#C5C5C5"/>
<path d="M972.8 4.66666H933.386C933 4.66666 933 4.66666 933 5.10577C933 20.3759 933 35.6461 933 50.9161C933 51.3333 933 51.3333 933.357 51.3333H952.999H972.678C972.997 51.3333 972.997 51.3333 972.997 50.9491C972.997 35.6571 972.997 20.3539 972.997 5.06185V4.90817C973.016 4.7435 972.931 4.66666 972.8 4.66666ZM970.448 7.98195C970.448 21.331 970.448 34.68 970.448 48.029C970.448 48.3693 970.448 48.3693 970.166 48.3693H935.85C935.568 48.3693 935.568 48.3693 935.568 48.029C935.568 34.68 935.568 21.331 935.568 7.98195C935.568 7.58675 935.54 7.64165 935.85 7.64165H953.027H970.166C970.476 7.64165 970.448 7.58675 970.448 7.98195Z" fill="#C5C5C5"/>
<path d="M965.904 25.9414C965.838 25.162 965.735 24.3936 965.452 23.68C965.095 22.7799 964.493 22.3078 963.637 22.2419C962.997 22.187 962.358 22.22 961.718 22.1981C961.088 22.22 960.457 22.187 959.827 22.2419C958.924 22.3078 958.303 22.8237 957.955 23.7788C957.673 24.5363 957.579 25.3486 957.523 26.161C957.438 27.3905 957.438 28.6311 957.523 29.8715C957.579 30.6399 957.673 31.4084 957.918 32.1329C958.275 33.1977 958.924 33.7576 959.902 33.8016C961.116 33.8674 962.339 33.8674 963.552 33.8016C964.502 33.7576 965.151 33.2308 965.509 32.2098C965.819 31.3315 965.904 30.3984 965.96 29.4653C966.017 28.2687 966.007 27.1051 965.904 25.9414ZM963.477 30.4753C963.477 30.5082 963.477 30.5411 963.468 30.5851C963.364 31.4962 963.195 31.6719 962.414 31.6719C961.812 31.6719 961.21 31.7048 960.608 31.639C960.363 31.628 960.147 31.4304 960.091 31.1449C959.978 30.6948 959.921 30.2337 959.921 29.7726C959.902 29.1799 959.912 28.5871 959.912 28.0053C959.902 27.0393 959.865 26.0622 960.044 25.0962C960.147 24.5253 960.316 24.3606 960.815 24.3496C961.408 24.3387 962 24.3387 962.593 24.3496C963.148 24.3496 963.326 24.5363 963.43 25.1729C963.515 25.7438 963.562 26.3256 963.562 26.8965C963.571 28.0931 963.609 29.2787 963.477 30.4753Z" fill="#C5C5C5"/>
<path d="M956.434 23.5039C956.123 22.7465 955.474 22.2634 954.759 22.2414C953.471 22.1647 952.173 22.1536 950.884 22.2305C949.962 22.2745 949.341 22.8342 948.993 23.8113C948.73 24.5358 948.636 25.3153 948.589 26.0947C948.504 27.3681 948.504 28.6415 948.589 29.9149C948.645 30.7602 948.749 31.6056 949.078 32.385C949.398 33.1424 949.896 33.6144 950.63 33.7462C951.354 33.8669 952.069 33.8121 952.765 33.834C953.424 33.823 954.044 33.845 954.675 33.7901C955.55 33.7242 956.18 33.2522 956.537 32.3081C956.81 31.5946 956.923 30.8371 956.989 30.0686C957.111 28.5647 957.102 27.0497 956.951 25.5458C956.848 24.8323 956.725 24.1407 956.434 23.5039ZM954.543 30.4308C954.543 30.4748 954.543 30.5187 954.534 30.5627C954.411 31.5177 954.27 31.6604 953.442 31.6604C952.85 31.6604 952.257 31.6933 951.665 31.6275C951.42 31.6165 951.222 31.4189 951.166 31.1445C951.063 30.7273 951.006 30.3101 950.997 29.882C950.968 29.2672 950.921 28.6415 950.94 28.0157C950.959 27.0278 950.94 26.0288 951.119 25.0518C951.213 24.5248 951.392 24.3602 951.853 24.3493C952.483 24.3382 953.113 24.3382 953.743 24.3493C954.195 24.3602 954.355 24.5139 954.468 25.0298C954.599 25.6336 954.618 26.2593 954.628 26.8851C954.637 28.0597 954.656 29.2453 954.543 30.4308Z" fill="#C5C5C5"/>
<path d="M946.216 26.2368C945.483 26.127 944.74 26.2149 944.006 26.193C943.441 26.182 942.924 26.3027 942.501 26.7638C942.454 26.8186 942.407 26.8626 942.341 26.8186C942.275 26.7748 942.313 26.6979 942.313 26.6321C942.36 25.9734 942.407 25.3037 942.444 24.6341C942.454 24.4035 942.52 24.3377 942.727 24.3377C944.326 24.3487 945.915 24.3377 947.515 24.3487C947.684 24.3487 947.731 24.2937 947.731 24.0962C947.722 23.5473 947.712 22.9874 947.731 22.4385C947.74 22.2189 947.665 22.186 947.496 22.186H944.128C942.999 22.186 941.871 22.186 940.751 22.186C940.582 22.186 940.516 22.2409 940.507 22.4385C940.403 24.3047 940.3 26.171 940.196 28.0372C940.177 28.2128 940.243 28.2568 940.365 28.3007C940.892 28.4764 941.419 28.6519 941.946 28.8386C942.059 28.8825 942.181 28.8715 942.284 28.7947C942.529 28.6081 942.802 28.4654 943.084 28.3885C943.78 28.2128 944.495 28.2897 945.191 28.3226C945.445 28.3337 945.596 28.5312 945.643 28.8276C945.774 29.596 945.774 30.3864 945.643 31.1549C945.586 31.4952 945.426 31.6598 945.125 31.6709C944.373 31.7038 943.62 31.7038 942.868 31.6709C942.576 31.6598 942.435 31.5062 942.36 31.1768C942.294 30.8805 942.256 30.5731 942.266 30.2657C942.275 30.112 942.219 30.0682 942.096 30.0682C941.457 30.0791 940.817 30.0901 940.177 30.0901C940.046 30.0901 940.008 30.1449 940.017 30.2877C940.036 30.7707 940.055 31.2537 940.102 31.7367C940.243 33.0321 940.826 33.7237 941.889 33.7896C943.291 33.8774 944.702 33.8774 946.104 33.7896C946.96 33.7348 947.562 33.1639 947.834 32.2197C947.947 31.7587 948.013 31.2757 948.023 30.7927C948.07 29.8925 948.07 28.9813 947.91 28.0921C947.703 26.9724 947.176 26.3906 946.216 26.2368Z" fill="#C5C5C5"/>
<path d="M388.515 16.774C387.909 16.3809 386.172 16.624 384.086 17.3784C380.435 20.2944 377.354 24.5903 377.139 31.4888C377.099 31.6538 376.739 31.4663 376.668 31.4153C375.682 29.2074 375.292 26.8825 376.115 23.5285C376.268 23.23 375.767 22.8626 375.676 22.9675C375.496 23.179 374.742 24.1165 374.242 25.1305C371.762 30.1569 373.384 36.5973 377.723 39.4158C382.06 42.2388 387.538 40.4179 389.953 35.348C392.747 29.4965 390.153 17.8429 388.515 16.7741L388.515 16.774Z" fill="#C5C5C5"/>
<path d="M404.041 19.5822C398.898 19.5822 395.165 24.0498 395.165 30.2054C395.165 36.4114 398.889 40.7458 404.221 40.7458C406.914 40.7458 409.046 39.7618 410.742 37.7361C411.249 37.0971 411.303 36.4813 411.303 36.2459C411.303 35.2424 410.664 34.5135 409.784 34.5135C409.341 34.5135 408.97 34.7093 408.544 35.1689C407.584 36.2144 406.32 37.2824 404.221 37.2824C401.302 37.2824 398.928 34.722 398.779 31.4341H410.395C411.658 31.4341 412.272 30.744 412.272 29.3251C412.272 28.9073 412.272 28.6059 412.2 28.0111C411.574 22.7334 408.525 19.5829 404.042 19.5829L404.041 19.5822ZM404.041 22.8775C406.83 22.8775 408.62 24.9542 408.73 28.306H398.783C399.044 25.204 401.288 22.8775 404.041 22.8775H404.041Z" fill="#C5C5C5"/>
<path d="M423.364 19.5822C421.028 19.5822 418.715 21.1518 417.811 23.3319V21.9847C417.811 19.8974 416.426 19.7917 416.149 19.7917C415.329 19.7917 414.452 20.3677 414.452 21.9847V38.2582C414.452 40.4256 415.926 40.5351 416.221 40.5351C416.516 40.5351 417.991 40.4256 417.991 38.2582V29.5344C417.991 25.7387 419.831 23.0875 422.467 23.0875C425.02 23.0875 426.261 25.045 426.261 29.0724V38.2582C426.261 40.4256 427.735 40.5351 428.031 40.5351C428.326 40.5351 429.8 40.4256 429.8 38.2582V27.7739C429.8 23.814 428.109 19.5833 423.364 19.5833V19.5822Z" fill="#C5C5C5"/>
<path d="M445.811 19.7923C444.993 19.7923 444.4 20.3496 444.047 21.446L439.206 35.6707L434.401 21.446C434.025 20.3331 433.436 19.7923 432.601 19.7923C431.626 19.7923 430.832 20.6817 430.832 21.7754C430.832 22.046 430.858 22.397 431.054 22.9452L436.618 38.295C437.281 40.1467 438.371 40.5354 439.17 40.5354C439.967 40.5354 441.059 40.1467 441.723 38.2959L447.323 22.8608C447.514 22.3194 447.544 21.9218 447.544 21.7336C447.544 20.6274 446.798 19.7926 445.811 19.7926V19.7923Z" fill="#C5C5C5"/>
<path d="M456.097 19.5826C453.833 19.5826 451.725 20.3191 450.162 21.6549C449.632 22.0822 449.374 22.6155 449.374 23.2861C449.374 24.2093 449.977 24.933 450.749 24.933C451.082 24.933 451.456 24.7777 451.799 24.4972C453.143 23.4502 454.406 22.962 455.773 22.962C458.389 22.962 459.891 24.5167 459.891 27.2279V27.6772C454.018 27.6847 448.045 28.5135 448.045 34.4833C448.045 38.7799 451.187 40.7036 454.301 40.7036C456.782 40.7036 458.763 39.5554 460.033 37.3812V38.4266C460.033 39.9837 460.928 40.5357 461.696 40.5357C461.858 40.5357 463.285 40.4765 463.285 38.4266V27.4789C463.285 22.5335 460.597 19.5816 456.096 19.5816L456.097 19.5826ZM459.147 30.7213H459.891V31.6737C459.891 35.1574 457.993 37.4081 455.056 37.4081C454.258 37.4081 451.656 37.1914 451.656 34.3992C451.656 31.1023 455.931 30.7213 459.147 30.7213Z" fill="#C5C5C5"/>
<path d="M472.502 23.5488C474.05 23.5488 474.128 22.1411 474.128 21.8591C474.128 21.0221 473.701 20.1273 472.502 20.1273H469.318V16.3647C469.318 14.684 468.385 14.0877 467.585 14.0877C467.29 14.0877 465.816 14.1973 465.816 16.3647V34.2321C465.816 38.3556 467.557 40.535 470.851 40.535C471.703 40.535 472.534 40.3586 473.077 40.0632C473.7 39.7003 474.056 39.1033 474.056 38.426C474.056 37.4705 473.463 36.7777 472.646 36.7777C472.488 36.7777 472.263 36.8234 472.015 36.9066C471.712 36.9951 471.507 37.0295 471.282 37.0295C469.942 37.0295 469.318 36.0074 469.318 33.8122V23.5471H472.502V23.5488Z" fill="#C5C5C5"/>
<path d="M484.202 19.5822C478.85 19.5822 474.967 24.0146 474.967 30.1209C474.967 33.0939 475.908 35.8035 477.615 37.7503C479.31 39.6816 481.649 40.7451 484.202 40.7451C489.487 40.7451 493.473 36.1778 493.473 30.121C493.473 24.0147 489.573 19.5823 484.202 19.5823V19.5822ZM484.202 37.2393C480.532 37.2393 478.612 33.6581 478.612 30.1204C478.612 25.259 481.51 23.0452 484.202 23.0452C486.894 23.0452 489.791 25.259 489.791 30.1204C489.791 35.0119 486.894 37.2393 484.202 37.2393Z" fill="#C5C5C5"/>
<path fill-rule="evenodd" clip-rule="evenodd" d="M123.096 29.7509C123.096 23.7697 120.613 19.05 115.867 19.05C111.1 19.05 108.216 23.7697 108.216 29.7042C108.216 36.7368 111.621 40.2882 116.507 40.2882C118.891 40.2882 120.693 39.6573 122.055 38.7695V34.0967C120.693 34.891 119.131 35.3816 117.148 35.3816C115.206 35.3816 113.483 34.5872 113.263 31.8303H123.056C123.056 31.5266 123.096 30.3116 123.096 29.7509ZM113.203 27.5312C113.203 24.8911 114.585 23.793 115.846 23.793C117.068 23.793 118.37 24.8911 118.37 27.5312H113.203Z" fill="#C5C5C5"/>
<path fill-rule="evenodd" clip-rule="evenodd" d="M100.486 19.05C98.5237 19.05 97.262 20.1248 96.5611 20.8725L96.3007 19.4238H91.8949V46.6667L96.9015 45.4283L96.9215 38.8162C97.6425 39.4237 98.7039 40.2882 100.466 40.2882C104.051 40.2882 107.315 36.9237 107.315 29.5173C107.295 22.7416 103.991 19.05 100.486 19.05ZM99.2847 35.1481C98.1031 35.1481 97.4022 34.6574 96.9215 34.0499L96.9015 25.3818C97.4222 24.7042 98.1432 24.2369 99.2847 24.2369C101.107 24.2369 102.369 26.6201 102.369 29.6808C102.369 32.8116 101.127 35.1481 99.2847 35.1481Z" fill="#C5C5C5"/>
<path fill-rule="evenodd" clip-rule="evenodd" d="M85.0043 17.6713L90.0309 16.4096V11.6667L85.0043 12.905V17.6713Z" fill="#C5C5C5"/>
<path d="M90.0309 19.4476H85.0043V39.8914H90.0309V19.4476Z" fill="#C5C5C5"/>
<path fill-rule="evenodd" clip-rule="evenodd" d="M79.6187 21.1755L79.2983 19.4464H74.9725V39.8902H79.9792V26.0352C81.1607 24.2362 83.1634 24.5632 83.7842 24.8202V19.4464C83.1434 19.1661 80.8003 18.6521 79.6187 21.1755Z" fill="#C5C5C5"/>
<path fill-rule="evenodd" clip-rule="evenodd" d="M69.6043 14.3771L64.7178 15.592L64.6978 34.3069C64.6978 37.7648 66.9207 40.3115 69.8846 40.3115C71.5268 40.3115 72.7284 39.961 73.3893 39.5404V34.7975C72.7484 35.1013 69.5842 36.176 69.5842 32.7181V24.4237H73.3893V19.4472H69.5842L69.6043 14.3771Z" fill="#C5C5C5"/>
<path fill-rule="evenodd" clip-rule="evenodd" d="M56.0667 25.3818C56.0667 24.4706 56.7076 24.1201 57.769 24.1201C59.291 24.1201 61.2135 24.6575 62.7355 25.6155V20.1248C61.0733 19.3538 59.4312 19.05 57.769 19.05C53.7036 19.05 51 21.5266 51 25.6621C51 32.1106 58.6101 31.0827 58.6101 33.863C58.6101 34.9378 57.809 35.2883 56.6875 35.2883C55.0253 35.2883 52.9025 34.4939 51.2203 33.4191V38.9797C53.0828 39.9144 54.9653 40.3116 56.6875 40.3116C60.8531 40.3116 63.7168 37.905 63.7168 33.7229C63.6968 26.7603 56.0667 27.9986 56.0667 25.3818Z" fill="#C5C5C5"/>
<path d="M846.074 35.542C845.988 36.0476 845.84 36.4888 845.631 36.8677C845.421 37.2469 845.147 37.5555 844.808 37.7897C844.469 38.0259 844.047 38.1444 843.542 38.1444C843.051 38.1444 842.633 38.0259 842.286 37.7897C841.94 37.5555 841.662 37.2469 841.452 36.8677C841.244 36.4888 841.092 36.0476 840.998 35.542C840.904 35.0376 840.858 34.5232 840.858 34.0027C840.858 33.4619 840.902 32.9401 840.988 32.4361C841.074 31.9307 841.223 31.4848 841.432 31.0955C841.641 30.7092 841.915 30.3937 842.254 30.1501C842.592 29.9058 843.015 29.7822 843.52 29.7822C844.011 29.7822 844.425 29.9058 844.764 30.1501C845.104 30.3937 845.381 30.7126 845.598 31.1089C845.815 31.505 845.97 31.9559 846.064 32.4604C846.158 32.966 846.204 33.4801 846.204 34.0027C846.204 34.5232 846.161 35.0376 846.074 35.542ZM848.975 31.4372C848.772 30.5877 848.462 29.8421 848.044 29.2019C847.625 28.5625 847.099 28.0482 846.464 27.6616C845.829 27.2735 845.071 27.0808 844.19 27.0808C843.499 27.0808 842.863 27.24 842.286 27.5601C841.709 27.8803 841.233 28.394 840.858 29.1012H840.815V27.4335H837.893V45.0657H840.966V38.8772H841.009C841.384 39.5176 841.865 40.0009 842.449 40.3284C843.033 40.6567 843.672 40.8219 844.365 40.8219C845.187 40.8219 845.904 40.6352 846.519 40.2658C847.131 39.8958 847.644 39.3983 848.055 38.775C848.467 38.1516 848.772 37.4368 848.975 36.6284C849.178 35.8198 849.278 34.978 849.278 34.1025C849.278 33.1764 849.178 32.2886 848.975 31.4372ZM833.824 35.542C833.737 36.0477 833.588 36.4889 833.38 36.8678C833.171 37.247 832.896 37.5556 832.556 37.7899C832.218 38.026 831.795 38.1445 831.291 38.1445C830.799 38.1445 830.383 38.026 830.036 37.7899C829.689 37.5556 829.412 37.247 829.203 36.8678C828.993 36.4889 828.842 36.0477 828.748 35.542C828.654 35.0377 828.608 34.5232 828.608 34.0027C828.608 33.462 828.65 32.9403 828.736 32.4363C828.824 31.9309 828.971 31.485 829.181 31.0956C829.389 30.7094 829.664 30.3938 830.004 30.1502C830.343 29.9059 830.763 29.7823 831.269 29.7823C831.759 29.7823 832.176 29.9059 832.514 30.1502C832.853 30.3938 833.131 30.7127 833.347 31.1089C833.563 31.505 833.718 31.9561 833.812 32.4605C833.907 32.966 833.952 33.4802 833.952 34.0029C833.952 34.5233 833.91 35.0377 833.824 35.5422V35.542ZM835.793 29.2021C835.375 28.5626 834.848 28.0484 834.213 27.6617C833.577 27.2738 832.821 27.081 831.941 27.081C831.247 27.081 830.613 27.2403 830.036 27.5603C829.457 27.8805 828.983 28.3942 828.608 29.1015H828.564V27.4337H825.641V45.0659H828.716V38.8773H828.758C829.133 39.5178 829.614 40.0012 830.199 40.3286C830.782 40.6569 831.421 40.8221 832.114 40.8221C832.937 40.8221 833.654 40.6355 834.267 40.266C834.88 39.896 835.393 39.3986 835.804 38.7752C836.216 38.1518 836.521 37.4369 836.724 36.6287C836.925 35.8201 837.027 34.9782 837.027 34.1027C837.027 33.1766 836.925 32.2887 836.724 31.4375C836.521 30.5879 836.211 29.8423 835.793 29.2021ZM815.578 33.5218L817.591 26.9035H817.633L819.582 33.5218H815.578ZM815.902 22.458L810.058 40.4928H813.478L814.69 36.4764H820.469L821.637 40.4928H825.166L819.388 22.458H815.902ZM809.798 34.772C809.596 34.3596 809.329 34.0144 808.997 33.7357C808.665 33.4587 808.286 33.2351 807.861 33.0659C807.435 32.8984 806.998 32.7564 806.551 32.638C806.118 32.5197 805.693 32.4101 805.275 32.3089C804.856 32.2074 804.484 32.0938 804.159 31.9683C803.835 31.8417 803.572 31.6786 803.37 31.4748C803.167 31.2733 803.067 31.0127 803.067 30.6923C803.067 30.4228 803.123 30.2084 803.24 30.048C803.355 29.8888 803.496 29.7663 803.662 29.6813C803.828 29.5978 804.011 29.5434 804.214 29.5173C804.415 29.4924 804.604 29.4805 804.776 29.4805C805.325 29.4805 805.801 29.6023 806.206 29.8464C806.609 30.0906 806.833 30.5579 806.876 31.2479H809.798C809.74 30.4401 809.564 29.771 809.268 29.2391C808.972 28.7095 808.6 28.2841 808.153 27.9645C807.707 27.6445 807.198 27.4176 806.627 27.2825C806.057 27.1476 805.469 27.081 804.864 27.081C804.257 27.081 803.665 27.1443 803.089 27.2692C802.511 27.3961 801.991 27.6159 801.53 27.9267C801.068 28.2382 800.697 28.6627 800.415 29.2021C800.133 29.7408 799.993 30.432 799.993 31.2733C799.993 31.8459 800.095 32.331 800.297 32.7263C800.497 33.1226 800.765 33.4496 801.096 33.711C801.429 33.9719 801.808 34.1832 802.233 34.342C802.659 34.5036 803.095 34.6415 803.542 34.7599C804.64 35.0298 805.495 35.2982 806.108 35.5685C806.721 35.8374 807.028 36.2415 807.028 36.7809C807.028 37.1007 806.963 37.3645 806.833 37.5755C806.703 37.7872 806.541 37.9545 806.346 38.0808C806.15 38.2076 805.934 38.3009 805.697 38.3584C805.459 38.4179 805.231 38.4476 805.015 38.4476C804.711 38.4476 804.419 38.405 804.139 38.3212C803.857 38.2368 803.608 38.1061 803.392 37.9293C803.175 37.7528 802.998 37.5258 802.861 37.2471C802.725 36.9691 802.655 36.6379 802.655 36.2496H799.733C799.763 37.1252 799.932 37.8539 800.243 38.4347C800.551 39.0157 800.948 39.4825 801.432 39.8368C801.916 40.1898 802.468 40.443 803.089 40.595C803.709 40.7461 804.344 40.8221 804.992 40.8221C805.627 40.8221 806.251 40.7499 806.865 40.6081C807.478 40.4644 808.023 40.2159 808.5 39.8616C808.977 39.5086 809.361 39.0415 809.658 38.46C809.953 37.8783 810.1 37.1586 810.1 36.2997C810.1 35.6924 810 35.1846 809.798 34.7722V34.772ZM797.093 23.519H794.019V27.4335H792.158V29.8328H794.019V37.5377C794.019 38.1954 794.114 38.7252 794.301 39.129C794.489 39.5325 794.745 39.846 795.069 40.0643C795.394 40.2833 795.769 40.43 796.195 40.5059C796.619 40.5811 797.072 40.6194 797.547 40.6194C797.851 40.6194 798.161 40.6103 798.479 40.5951C798.796 40.5778 799.084 40.5451 799.344 40.493V37.7141C799.199 37.7484 799.048 37.7748 798.889 37.79C798.731 37.8071 798.565 37.8161 798.391 37.8161C797.872 37.8161 797.526 37.7141 797.352 37.5123C797.18 37.3108 797.093 36.9065 797.093 36.2997V29.8332H799.344V27.4338H797.093V23.519ZM788.284 35.44C788.284 35.6438 788.266 35.913 788.229 36.2493C788.194 36.587 788.096 36.9184 787.938 37.2468C787.779 37.5752 787.533 37.8583 787.202 38.093C786.87 38.3294 786.401 38.4473 785.794 38.4473C785.55 38.4473 785.311 38.422 785.08 38.3705C784.849 38.3208 784.648 38.2316 784.474 38.1057C784.301 37.9794 784.164 37.8068 784.063 37.5878C783.962 37.3689 783.911 37.1004 783.911 36.7806C783.911 36.444 783.962 36.1643 784.063 35.9464C784.164 35.7286 784.298 35.5468 784.464 35.4032C784.629 35.2602 784.824 35.1468 785.048 35.0617C785.271 34.9778 785.498 34.9106 785.73 34.86C785.974 34.8105 786.22 34.767 786.465 34.7335C786.711 34.7006 786.946 34.6574 787.169 34.6077C787.393 34.5573 787.602 34.4933 787.797 34.4175C787.992 34.3417 788.154 34.2378 788.284 34.1023V35.44ZM791.357 37.5878V30.7939C791.357 30.0012 791.206 29.3662 790.902 28.8869C790.6 28.4066 790.21 28.0323 789.734 27.7627C789.257 27.4934 788.73 27.3121 788.153 27.2197C787.577 27.1271 787.006 27.081 786.444 27.081C785.824 27.081 785.206 27.152 784.594 27.2956C783.979 27.4386 783.428 27.6791 782.938 28.0151C782.447 28.3519 782.042 28.7987 781.726 29.3538C781.407 29.9094 781.227 30.6083 781.184 31.4507H784.257C784.315 30.743 784.518 30.2373 784.864 29.9347C785.211 29.6314 785.686 29.4806 786.293 29.4806C786.567 29.4806 786.822 29.5017 787.061 29.5435C787.299 29.586 787.508 29.6689 787.689 29.796C787.869 29.9222 788.014 30.0985 788.121 30.3266C788.23 30.5537 788.284 30.8617 788.284 31.248C788.298 31.6196 788.204 31.8999 788.003 32.094C787.8 32.2887 787.526 32.4364 787.18 32.5361C786.833 32.6381 786.437 32.7142 785.989 32.763C785.542 32.8146 785.087 32.8833 784.626 32.9663C784.164 33.0507 783.706 33.1641 783.252 33.3074C782.798 33.4496 782.392 33.6655 782.039 33.9505C781.685 34.2382 781.397 34.6207 781.173 35.1009C780.949 35.5811 780.838 36.192 780.838 36.932C780.838 37.6054 780.935 38.1863 781.13 38.6742C781.325 39.164 781.595 39.5665 781.942 39.8868C782.288 40.2068 782.692 40.443 783.154 40.595C783.615 40.7461 784.113 40.8221 784.648 40.8221C785.34 40.8221 786.019 40.7037 786.681 40.4691C787.345 40.2317 787.923 39.8206 788.414 39.2303C788.428 39.4491 788.453 39.6646 788.489 39.8746C788.525 40.0841 788.572 40.2917 788.63 40.493H791.747C791.603 40.225 791.501 39.8206 791.444 39.2807C791.386 38.7422 791.357 38.1791 791.357 37.588V37.5878ZM778.695 28.5572C778.392 28.094 777.977 27.7326 777.451 27.4709C776.924 27.2112 776.249 27.0808 775.427 27.0808C774.85 27.0808 774.258 27.2528 773.652 27.5987C773.046 27.943 772.548 28.495 772.159 29.2532H772.094V22.4578H769.02V40.4927H772.094V33.6476C772.094 32.3175 772.281 31.3625 772.657 30.7805C773.031 30.2002 773.637 29.9093 774.475 29.9093C775.21 29.9093 775.723 30.1744 776.011 30.7056C776.3 31.2354 776.444 32.0399 776.444 33.1172V40.493H779.518V32.4606C779.518 31.6528 779.456 30.9164 779.334 30.25C779.211 29.586 778.998 29.0213 778.695 28.5576V28.5572ZM762.462 34.8858H762.419L759.779 22.4581H756.597L753.913 34.7344H753.87L751.424 22.4581H748.026L752.116 40.493H755.558L758.133 28.2168H758.177L760.796 40.493H764.172L768.328 22.4581H764.995L762.462 34.8858Z" fill="#C5C5C5"/>
<path d="M719.797 44.2411L720.279 44.5741C722.303 45.9752 724.623 46.7161 726.988 46.7175H726.994C734.259 46.7175 740.173 39.8202 740.175 31.3431C740.176 27.2347 738.807 23.3721 736.318 20.4658C733.829 17.5601 730.52 15.9587 726.998 15.957C719.727 15.957 713.814 22.8533 713.811 31.3305C713.81 34.2354 714.506 37.0645 715.826 39.5121L716.14 40.0939L714.808 45.7673L719.797 44.2411ZM711 50.1619L713.25 40.5769C711.862 37.7717 711.132 34.5895 711.133 31.3296C711.137 21.1308 718.251 12.8333 726.994 12.8333C731.236 12.8354 735.218 14.7617 738.213 18.2581C741.207 21.7544 742.855 26.4019 742.854 31.3445C742.85 41.5428 735.734 49.8419 726.994 49.8419C726.993 49.8419 726.994 49.8419 726.994 49.8419H726.987C724.333 49.8408 721.725 49.0641 719.408 47.5901L711 50.1619Z" fill="#C5C5C5"/>
<path d="M711.133 31.3353C711.132 34.5952 711.862 37.7777 713.25 40.5826L711 50.167L719.408 47.5951C721.724 49.069 724.332 49.8457 726.986 49.847H726.993C735.734 49.847 742.849 41.5479 742.853 31.3496C742.855 26.4068 741.206 21.7594 738.212 18.2632C735.218 14.7671 731.236 12.8406 726.993 12.8385C718.251 12.8385 711.137 21.1359 711.133 31.3347L711.133 31.3353ZM716.14 40.0994L715.826 39.5178C714.506 37.0699 713.81 34.2407 713.811 31.3361C713.814 22.8594 719.727 15.9627 726.998 15.9627C730.519 15.9642 733.828 17.5658 736.318 20.4714C738.807 23.3773 740.176 27.2403 740.175 31.3482C740.172 39.8253 734.259 46.7227 726.993 46.7227H726.988C724.622 46.721 722.302 45.9802 720.278 44.5794L719.797 44.2463L714.807 45.7725L716.14 40.0994ZM726.993 49.847H726.993H726.993C726.993 49.847 726.993 49.847 726.993 49.847Z" fill="#C5C5C5"/>
<path fill-rule="evenodd" clip-rule="evenodd" d="M723.029 23.6006C722.732 22.8307 722.42 22.8153 722.138 22.8018C721.907 22.7902 721.642 22.7911 721.378 22.7911C721.114 22.7911 720.685 22.9067 720.321 23.3694C719.958 23.8321 718.934 24.9504 718.934 27.2251C718.934 29.4999 720.355 31.6979 720.552 32.0067C720.751 32.3149 723.294 37.1321 727.322 38.9851C730.669 40.5252 731.35 40.2188 732.077 40.1417C732.804 40.0647 734.422 39.0237 734.752 37.9441C735.082 36.8646 735.082 35.9393 734.983 35.7461C734.884 35.5533 734.62 35.4376 734.223 35.2066C733.827 34.9754 731.879 33.8568 731.516 33.7024C731.152 33.5484 730.888 33.4714 730.624 33.9342C730.36 34.3966 729.601 35.4376 729.369 35.7461C729.138 36.055 728.907 36.0935 728.511 35.8623C728.114 35.6303 726.838 35.1426 725.324 33.5678C724.146 32.3423 723.351 30.8289 723.119 30.3661C722.888 29.9038 723.095 29.6534 723.293 29.4229C723.471 29.2157 723.69 28.883 723.888 28.6132C724.086 28.3432 724.152 28.1505 724.284 27.8421C724.416 27.5336 724.35 27.2636 724.251 27.0322C724.152 26.801 723.381 24.5147 723.029 23.6005" fill="#C5C5C5"/>
</svg>
